<?xml version="1.0" encoding="UTF-8" standalone="no"?>


<svg version="1.1" id="svg2" xml:space="preserve" width="565.15997" height="565.72931" viewBox="0 0 565.15995 565.7293" xmlns:sodipodi-0.dtd="http://sodipodi.sourceforge.net/DTD/sodipodi-0.dtd" sodipodi-0.dtd:docname="AI File_NoText_NoBkg_Black.svg" xmlns:inkscape="http://www.inkscape.org/namespaces/inkscape" inkscape:version="1.4 (86a8ad7, 2024-10-11)" inkscape:export-filename="C:\Users\Rodrigo\Videos\YouTube.Intro\ReturnedByLogoDesigner\YT.Logo_04.Files_Source\AI File_NoBkg_Black.png" inkscape:export-xdpi="101.215" inkscape:export-ydpi="101.215" xmlns:inkscape="http://www.inkscape.org/namespaces/inkscape" xmlns:sodipodi="http://sodipodi.sourceforge.net/DTD/sodipodi-0.dtd" xmlns:xlink="http://www.w3.org/1999/xlink" xmlns="http://www.w3.org/2000/svg" xmlns:svg="http://www.w3.org/2000/svg" xmlns:rdf="http://www.w3.org/1999/02/22-rdf-syntax-ns#" xmlns:cc="http://creativecommons.org/ns#" xmlns:dc="http://purl.org/dc/elements/1.1/"><metadata id="metadata8"><RDF><Work xmlns:_="http://www.w3.org/1999/02/22-rdf-syntax-ns#" _:about=""><format>image/svg+xml</format><type _:resource="http://purl.org/dc/dcmitype/StillImage"></type></Work></RDF></metadata><defs id="defs6"><linearGradient x1="0" y1="0" x2="1" y2="0" gradientUnits="userSpaceOnUse" gradientTransform="matrix(2000,0,0,-2000,0,1000)" spreadMethod="pad" id="linearGradient28"><stop style="stop-opacity:1;stop-color:#450cf2" offset="0" id="stop24"></stop><stop style="stop-opacity:1;stop-color:#ba0cf2" offset="1" id="stop26"></stop></linearGradient><clipPath clipPathUnits="userSpaceOnUse" id="clipPath38"><path d="M 0,2000 H 2000 V 0 H 0 Z" id="path36" inkscape:connector-curvature="0"></path></clipPath><clipPath clipPathUnits="userSpaceOnUse" id="clipPath46"><path d="M 465.379,1298 H 1548.38 V 688 H 465.379 Z" id="path44" inkscape:connector-curvature="0"></path></clipPath><clipPath clipPathUnits="userSpaceOnUse" id="clipPath50"><path d="M 465.379,1298 H 1548.38 V 688 H 465.379 Z" id="path48" inkscape:connector-curvature="0"></path></clipPath><mask maskUnits="userSpaceOnUse" x="0" y="0" width="1" height="1" id="mask52"><g id="g62"><g clip-path="url(#clipPath50)" id="g60"><g id="g58"><g transform="matrix(1083,0,0,610,465.3793,688)" id="g56"><image width="1" height="1" style="image-rendering:optimizeSpeed" preserveAspectRatio="none" transform="matrix(1,0,0,-1,0,1)" id="image54"></image></g></g></g></g></mask><mask maskUnits="userSpaceOnUse" x="0" y="0" width="1" height="1" id="mask64"><image width="1" height="1" style="image-rendering:optimizeSpeed" preserveAspectRatio="none" id="image66"></image></mask><clipPath clipPathUnits="userSpaceOnUse" id="clipPath92"><path d="M 0,2000 H 2000 V 0 H 0 Z" id="path90" inkscape:connector-curvature="0"></path></clipPath></defs><namedview pagecolor="#ffffff" bordercolor="#666666" borderopacity="1" objecttolerance="10" gridtolerance="10" guidetolerance="10" inkscape:pageopacity="0" inkscape:pageshadow="2" inkscape:window-width="2560" inkscape:window-height="1529" id="namedview4" showgrid="false" inkscape:zoom="0.25031579" inkscape:cx="980.76114" inkscape:cy="657.16989" inkscape:window-x="-8" inkscape:window-y="-8" inkscape:window-maximized="1" inkscape:current-layer="g88" fit-margin-top="0" fit-margin-left="0" fit-margin-right="0" fit-margin-bottom="0" inkscape:pagecheckerboard="true" inkscape:showpageshadow="2" inkscape:deskcolor="#d1d1d1"></namedview><g id="g10" inkscape:groupmode="layer" inkscape:label="AI File" transform="matrix(1.3333333,0,0,-1.3333333,-1050.753,1719.5619)"><g id="g1035" transform="translate(-5e-5,5e-5)"><g id="g88" clip-path="url(#clipPath92)"><g id="g130" transform="translate(985.8578,1057.3164)" style="fill:#000000"><path d="M 0,0 V 42.929 L 37.178,64.394 73.129,43.638 72.44,-1.097 72.439,-1.106 37.178,-21.465 Z m 159.076,-27.431 2.901,190.781 14.253,7.361 1.713,36.587 -30.826,19.784 -32.548,-16.811 -1.713,-36.587 17.198,-11.034 -2.622,-172.408 -0.006,0.003 -21.16,11.823 0.258,138.833 -31.631,18.953 -1.21,-79.69 -23.143,13.361 0.218,116.939 -30.927,21.891 -1.083,-76.082 -168.994,-95.248 -0.001,0.001 -13.536,8.599 -32.464,-16.963 -1.546,-36.603 28.408,-18.038 2.52,-1.595 32.464,16.962 0.865,20.423 v 0.003 l 152.217,85.792 v -10e-4 l -0.05,-26.653 -121.527,-68.496 -0.419,-36.873 71.402,40.249 0.004,10e-4 V 1.071 l -0.004,-0.002 -102.941,-59.847 -3.318,-37.746 65.927,37.233 v 10e-4 l 168.928,-97.336 -0.496,-16.027 31.146,-19.289 32.27,17.323 1.134,36.613 -31.145,19.288 -18.011,-9.665 -152.017,87.592 23.134,13.444 121.332,-69.907 31.927,18.432 -67.216,38.734 23.387,13.503 99.797,-55.739 34.152,16.383 z" style="fill:#000000;fill-opacity:1;fill-rule:nonzero;stroke:none" id="path132" inkscape:connector-curvature="0"></path></g></g></g></g></svg>